<svg id="Layer_1" data-name="Layer 1" xmlns="http://www.w3.org/2000/svg" viewBox="0 0 251.14 125.14"><defs><style>.cls-1,.cls-4{font-size:38.74px;font-family:Roboto-Black, Roboto;font-weight:800;}.cls-1,.cls-6{fill:#9ea638;}.cls-2{letter-spacing:-0.02em;}.cls-3{letter-spacing:0em;}.cls-4,.cls-5{fill:#5f652c;}</style></defs><title>logo</title><text class="cls-1" transform="translate(130.24 52.45)">Ag<tspan class="cls-2" x="48.67" y="0">r</tspan><tspan class="cls-3" x="62.67" y="0">o</tspan></text><text class="cls-4" transform="translate(130.24 98.08)">Meg</text><path class="cls-5" d="M78.81,36.18,77.33,37c13,19.47,5.92,45.57-14.6,54.38l.35.68C85.2,83.9,93,56.25,78.81,36.18Z"/><path class="cls-6" d="M62,59.58C57.34,70.65,57.27,81.46,63,92,84.79,84,92.45,56.77,78.5,37c-11.27,6.3-21.42,13.8-27.82,25.45C44,74.7,45.05,87,50.92,99.27,41.76,89.78,33.34,79.9,29.45,67.2c-.87-2.8-.6-7,.93-9.33A127.45,127.45,0,0,1,67.52,20.71a8,8,0,0,1,9.76.1,135.78,135.78,0,0,1,37.25,37.11,7.68,7.68,0,0,1-.06,9.31A132.79,132.79,0,0,1,77.2,104.31c-3.9,2.58-7.53,1.84-11.21-.38-9.68-5.84-14.65-18.77-11.21-30.64,1.4-4.85,3.91-9.37,5.92-14.05Z"/></svg>