<svg id="Layer_1" data-name="Layer 1" xmlns="http://www.w3.org/2000/svg" viewBox="0 0 285 91.29"><defs><style>.cls-1{fill:#a33823;}.cls-2{fill:#45201a;}.cls-3{fill:#693d3d;}.cls-4{fill:#ba5436;}</style></defs><title>logo</title><path class="cls-1" d="M7.8,42.07V33.41h7.42a2.23,2.23,0,0,1,1.49.4,1.63,1.63,0,0,1,.46,1.28v1.06a1.31,1.31,0,0,1-.39,1,1.84,1.84,0,0,1-1.1.47,1.83,1.83,0,0,1,1.15.53,1.59,1.59,0,0,1,.4,1.13v1.11a1.44,1.44,0,0,1-.63,1.28,3.61,3.61,0,0,1-1.92.41Zm6.58-7.25H9.78v2.06h4.6a1.32,1.32,0,0,0,.73-.14.55.55,0,0,0,.2-.48v-.82a.57.57,0,0,0-.2-.48A1.41,1.41,0,0,0,14.38,34.82Zm0,3.49H9.78v2.21h4.6a1.18,1.18,0,0,0,.77-.18.73.73,0,0,0,.21-.6v-.66a.73.73,0,0,0-.21-.6A1.26,1.26,0,0,0,14.38,38.31Z"/><path class="cls-1" d="M24.48,42.07V33.41h2v8.66Z"/><path class="cls-1" d="M34.29,42.07V33.41h2v7h6.5v1.63Z"/><path class="cls-1" d="M49.11,42.07V33.41h2v7h6.5v1.63Z"/><path class="cls-1" d="M63.94,42.07V33.41h2v8.66Z"/><path class="cls-1" d="M73.73,42.07V33.41H75.1l6.1,5.11c.21.17.39.33.55.48a4.73,4.73,0,0,1,.44.46c0-.49-.06-.83-.07-1s0-.36,0-.47V33.41h1.81v8.66H82.54l-6.36-5.35-.4-.37c-.12-.11-.22-.22-.32-.33,0,.26,0,.52.06.75s0,.45,0,.62v4.68Z"/><path class="cls-1" d="M99.83,35h-6.3v5.48h6.3V38.52h-3.3V37h5.26v3a2.21,2.21,0,0,1-.45,1.62,2.45,2.45,0,0,1-1.7.43h-6a2.45,2.45,0,0,1-1.7-.43A2.21,2.21,0,0,1,91.51,40V35.46A2.24,2.24,0,0,1,92,33.84a2.45,2.45,0,0,1,1.7-.43h6a2.55,2.55,0,0,1,1.7.42,2.11,2.11,0,0,1,.45,1.55v.19l-2,.35Z"/><path class="cls-1" d="M251.57,28.63A15.76,15.76,0,0,1,275.12,15.2a15.76,15.76,0,1,0-18.77,25A15.71,15.71,0,0,1,251.57,28.63Z"/><path class="cls-2" d="M265,17a15.76,15.76,0,0,1,13.82,23.33,15.76,15.76,0,1,0-25.31-18.36A15.73,15.73,0,0,1,265,17Z"/><path class="cls-3" d="M277,30.54a15.76,15.76,0,0,1-23.33,13.82,15.76,15.76,0,1,0,18.36-25.3A15.69,15.69,0,0,1,277,30.54Z"/><path class="cls-4" d="M262.53,42.63a15.76,15.76,0,0,1-11.88-24.37,15.76,15.76,0,1,0,23.73,20.35A15.71,15.71,0,0,1,262.53,42.63Z"/><path class="cls-2" d="M42.1,64.29H19.21a7.38,7.38,0,0,0,1.49,4.09A5.41,5.41,0,0,0,25,70.32a6.52,6.52,0,0,0,3.2-.85,7.49,7.49,0,0,0,2-1.88l11.24,1a16.12,16.12,0,0,1-6.22,6.44q-3.64,2-10.46,2a21.5,21.5,0,0,1-9.32-1.67,13.69,13.69,0,0,1-5.62-5.3A16.06,16.06,0,0,1,7.6,61.51a15,15,0,0,1,4.48-11.3q4.47-4.32,12.35-4.32,6.39,0,10.1,1.93a13.09,13.09,0,0,1,5.63,5.61A20.52,20.52,0,0,1,42.1,63ZM30.49,58.82a7.66,7.66,0,0,0-1.78-4.74,5.15,5.15,0,0,0-3.8-1.43,5.16,5.16,0,0,0-4.35,2.16c-.69.89-2.14,3-1.35,9.48Z"/><path class="cls-3" d="M43.3,46.56H56.85l4.72,8.3,5.52-8.3H79.68L69.52,60.75l14.7,22.07H70.9L61.57,66.75l-6.46,9.59H42.74L53.56,60.75Z"/><path class="cls-3" d="M84.22,87.67V46.56H94.91V51A14.05,14.05,0,0,1,99,47.21a11.67,11.67,0,0,1,5.53-1.32,10.69,10.69,0,0,1,9.24,4.57A18.92,18.92,0,0,1,117,61.76q0,7.44-3.57,11.35a11.66,11.66,0,0,1-9,3.91,12.45,12.45,0,0,1-4.81-.9,11.55,11.55,0,0,1-3.88-2.66V87.67ZM95.66,61.54a7.84,7.84,0,0,0,1.49,5.24,4.76,4.76,0,0,0,3.76,1.71,4.12,4.12,0,0,0,3.33-1.64q1.35-1.63,1.35-5.57,0-3.62-1.4-5.31a4.31,4.31,0,0,0-3.42-1.7A4.6,4.6,0,0,0,97.12,56Q95.67,57.71,95.66,61.54Z"/><path class="cls-3" d="M122.59,46.56h10.68v4.88a11.75,11.75,0,0,1,3.18-4.36,6.77,6.77,0,0,1,4.06-1.19A12,12,0,0,1,146,47.46l-3.53,8.13a9,9,0,0,0-3.2-.84,4,4,0,0,0-3.48,1.85q-1.75,2.61-1.76,9.76v10H122.59Z"/><path class="cls-3" d="M182,64.29H159.07a7.38,7.38,0,0,0,1.49,4.09,5.41,5.41,0,0,0,4.32,1.94,6.49,6.49,0,0,0,3.19-.85,7.51,7.51,0,0,0,2-1.88l11.24,1a16.12,16.12,0,0,1-6.22,6.44c-2.44,1.3-5.92,2-10.47,2a21.48,21.48,0,0,1-9.31-1.67,13.69,13.69,0,0,1-5.62-5.3,16,16,0,0,1-2.23-8.54,15,15,0,0,1,4.47-11.3c3-2.88,7.1-4.32,12.36-4.32q6.39,0,10.09,1.93A13.06,13.06,0,0,1,180,53.43,20.52,20.52,0,0,1,182,63Zm-11.61-5.47a7.66,7.66,0,0,0-1.78-4.74,5.59,5.59,0,0,0-8.15.73c-.69.89-2.37,3.44-1.35,9.48Z"/><path class="cls-3" d="M185.18,68.07,196.51,67a5.52,5.52,0,0,0,2,2.88,5.81,5.81,0,0,0,3.36.87,5.65,5.65,0,0,0,3.56-1,2.16,2.16,0,0,0,1-1.82,2.08,2.08,0,0,0-1.29-1.9,23.29,23.29,0,0,0-4.9-1.18A50.67,50.67,0,0,1,191.93,63a8.58,8.58,0,0,1-3.9-3,7.73,7.73,0,0,1-1.59-4.79,7.85,7.85,0,0,1,1.71-5.07,10.26,10.26,0,0,1,4.72-3.18,25,25,0,0,1,8-1,27.91,27.91,0,0,1,7.86.81A10.34,10.34,0,0,1,213,49.23a13.26,13.26,0,0,1,2.82,4.62L205,54.92a3.66,3.66,0,0,0-1.4-2.1,5.73,5.73,0,0,0-3.26-.9,4.62,4.62,0,0,0-2.81.68,2.07,2.07,0,0,0-.89,1.67,1.78,1.78,0,0,0,1.12,1.65,18,18,0,0,0,4.88,1,33.68,33.68,0,0,1,8.47,1.79A9.36,9.36,0,0,1,215.37,62a8.06,8.06,0,0,1,1.47,4.68,9.14,9.14,0,0,1-1.55,5,10.61,10.61,0,0,1-4.91,3.89A23.62,23.62,0,0,1,201.25,77q-8.16,0-11.62-2.33A10.49,10.49,0,0,1,185.18,68.07Z"/><path class="cls-3" d="M220.27,68.07,231.6,67a5.51,5.51,0,0,0,2,2.88,5.81,5.81,0,0,0,3.36.87,5.68,5.68,0,0,0,3.57-1,2.19,2.19,0,0,0,1-1.82,2.08,2.08,0,0,0-1.29-1.9,23.65,23.65,0,0,0-4.91-1.18A50.94,50.94,0,0,1,227,63a8.69,8.69,0,0,1-3.9-3,8.21,8.21,0,0,1,.13-9.86A10.17,10.17,0,0,1,228,46.94a25,25,0,0,1,8.05-1,28,28,0,0,1,7.87.81,10.24,10.24,0,0,1,4.23,2.53,13.26,13.26,0,0,1,2.82,4.62l-10.83,1.07a3.66,3.66,0,0,0-1.4-2.1,5.72,5.72,0,0,0-3.25-.9,4.68,4.68,0,0,0-2.82.68,2.06,2.06,0,0,0-.88,1.67,1.76,1.76,0,0,0,1.12,1.65,17.77,17.77,0,0,0,4.88,1,33.78,33.78,0,0,1,8.47,1.79A9.42,9.42,0,0,1,250.46,62a8.06,8.06,0,0,1,1.47,4.68,9.16,9.16,0,0,1-1.56,5,10.56,10.56,0,0,1-4.91,3.89A23.56,23.56,0,0,1,236.34,77q-8.18,0-11.63-2.33A10.44,10.44,0,0,1,220.27,68.07Z"/><ellipse class="cls-3" cx="54.1" cy="56.41" rx="1.7" ry="1.72"/></svg>