<svg id="Layer_1" data-name="Layer 1" xmlns="http://www.w3.org/2000/svg" viewBox="0 0 378 356"><defs><style>.cls-1{fill:#cd976d;}.cls-2{font-size:102.13px;fill:#cc966d;stroke:#cc966d;stroke-linecap:round;stroke-linejoin:round;font-family:CenturyGothic-Bold, Century Gothic;font-weight:700;}.cls-3{fill:#515251;}</style></defs><title>logo</title><path class="cls-1" d="M139.6,255.59H304.69A19.32,19.32,0,0,0,324,236.27V71.19a19.31,19.31,0,0,0-19.31-19.31H139.6a19.31,19.31,0,0,0-19.31,19.31V102a3.31,3.31,0,0,0,3.31,3.31H149a3.31,3.31,0,0,0,3.31-3.31V87.19a3.31,3.31,0,0,1,3.31-3.31H288.69A3.31,3.31,0,0,1,292,87.19V220.27a3.32,3.32,0,0,1-3.31,3.32H155.6a3.32,3.32,0,0,1-3.31-3.32V206.41a3.32,3.32,0,0,0-3.31-3.32H123.6a3.32,3.32,0,0,0-3.31,3.32v29.86A19.32,19.32,0,0,0,139.6,255.59Z"/><text class="cls-2" transform="translate(23.34 189.37)">CUBE</text><path class="cls-3" d="M122.28,267.88h2.22a7.23,7.23,0,0,1,2.6.33,2.66,2.66,0,0,1,1.25,1.08,3.34,3.34,0,0,1,.47,1.79,3.06,3.06,0,0,1-.52,1.82,3.21,3.21,0,0,1-1.57,1.1l2.61,4.9h-2.29l-2.48-4.67h-.19v4.67h-2.1Zm2.1,4.31H125a2.62,2.62,0,0,0,1.38-.26,1,1,0,0,0,.38-.88,1,1,0,0,0-.19-.62,1,1,0,0,0-.5-.39,4.13,4.13,0,0,0-1.15-.11h-.57Z"/><path class="cls-3" d="M131,267.88h6v2.05h-3.93v2h3.93v2h-3.93v2.9h3.93v2.06h-6Z"/><path class="cls-3" d="M144.8,269.38l-1.55,1.37a2.21,2.21,0,0,0-1.67-1.14,1,1,0,0,0-.67.22.65.65,0,0,0-.27.5.9.9,0,0,0,.19.53,13.59,13.59,0,0,0,1.54,1.41c.8.67,1.28,1.09,1.45,1.27a4.4,4.4,0,0,1,.91,1.23,3,3,0,0,1,.27,1.29,3,3,0,0,1-.94,2.24,3.47,3.47,0,0,1-2.45.88,3.6,3.6,0,0,1-2.05-.58,4.61,4.61,0,0,1-1.5-1.81l1.77-1.06c.53,1,1.14,1.46,1.83,1.46a1.37,1.37,0,0,0,.91-.32,1,1,0,0,0,.37-.72,1.29,1.29,0,0,0-.28-.75,8.15,8.15,0,0,0-1.23-1.15,12,12,0,0,1-2.32-2.27,2.88,2.88,0,0,1-.53-1.59,2.6,2.6,0,0,1,.88-2,3,3,0,0,1,2.15-.82,3.32,3.32,0,0,1,1.57.39A5.67,5.67,0,0,1,144.8,269.38Z"/><path class="cls-3" d="M145.91,267.88H152V270h-2v8.95h-2.12V270h-2Z"/><path class="cls-3" d="M156.8,267.88h2.13l4.24,11H161l-.86-2.27h-4.5l-.9,2.27h-2.18Zm1.08,2.92-1.48,3.79h2.95Z"/><path class="cls-3" d="M164.71,267.88h2.11V275a3.62,3.62,0,0,0,.16,1.3,1.31,1.31,0,0,0,.53.61,1.87,1.87,0,0,0,1.85,0,1.32,1.32,0,0,0,.56-.64,4.94,4.94,0,0,0,.15-1.5v-6.87h2.11v6.57a9.77,9.77,0,0,1-.19,2.31,3.11,3.11,0,0,1-.72,1.24,3.25,3.25,0,0,1-1.21.89,4.21,4.21,0,0,1-1.61.29,3.82,3.82,0,0,1-2.08-.55,3.22,3.22,0,0,1-1.27-1.38,7.13,7.13,0,0,1-.39-2.8Z"/><path class="cls-3" d="M174.75,267.88H177a7.3,7.3,0,0,1,2.6.33,2.64,2.64,0,0,1,1.24,1.08,3.26,3.26,0,0,1,.48,1.79,3.06,3.06,0,0,1-.53,1.82,3.18,3.18,0,0,1-1.56,1.1l2.61,4.9h-2.3L177,274.23h-.19v4.67h-2.1Zm2.1,4.31h.66a2.62,2.62,0,0,0,1.38-.26,1,1,0,0,0,.38-.88,1.07,1.07,0,0,0-.69-1,4.13,4.13,0,0,0-1.15-.11h-.58Z"/><path class="cls-3" d="M186.88,267.88H189l4.24,11h-2.18l-.86-2.27h-4.5l-.89,2.27h-2.18ZM188,270.8l-1.48,3.79h2.95Z"/><path class="cls-3" d="M194.87,267.88h2l4.72,7.25v-7.25h2.1v11h-2L197,271.67v7.23h-2.1Z"/><path class="cls-3" d="M205.13,267.88h6.09V270h-2v8.95h-2.13V270h-2Z"/><path class="cls-3" d="M218,267.88h2l2.56,7.69,2.58-7.69h2l1.85,11h-2l-1.18-7-2.34,7h-1.85l-2.32-7-1.21,7h-2Z"/><path class="cls-3" d="M234.12,267.88h2.13l4.24,11h-2.18l-.86-2.27H233l-.9,2.27h-2.18Zm1.08,2.92-1.48,3.79h2.95Z"/><path class="cls-3" d="M242.12,267.88h2l4.71,7.25v-7.25h2.1v11h-2l-4.71-7.23v7.23h-2.09Z"/><path class="cls-3" d="M256.82,267.88H259l4.24,11H261l-.86-2.27h-4.5l-.9,2.27h-2.18Zm1.08,2.92-1.48,3.79h2.95Z"/><path class="cls-3" d="M275,269.68l-1.48,1.46a4.38,4.38,0,0,0-3.27-1.48,3.75,3.75,0,0,0-2.73,1.08,3.54,3.54,0,0,0-1.1,2.62,3.63,3.63,0,0,0,1.14,2.7,3.88,3.88,0,0,0,2.82,1.11,3.41,3.41,0,0,0,1.83-.46,3.13,3.13,0,0,0,1.2-1.43h-3.19v-2h5.55v.47a5.38,5.38,0,0,1-.75,2.74,5.27,5.27,0,0,1-1.94,2,5.54,5.54,0,0,1-2.79.68,6.14,6.14,0,0,1-3.06-.75,5.36,5.36,0,0,1-2.13-2.12,5.94,5.94,0,0,1-.78-3,5.55,5.55,0,0,1,1.44-3.81,5.72,5.72,0,0,1,4.47-1.93,6.73,6.73,0,0,1,2.69.54A6.25,6.25,0,0,1,275,269.68Z"/><path class="cls-3" d="M277.71,267.88h6v2.05h-3.93v2h3.93v2h-3.93v2.9h3.93v2.06h-6Z"/><path class="cls-3" d="M286.75,267.88h2l2.55,7.69,2.58-7.69h2l1.85,11h-2l-1.19-7-2.34,7h-1.85l-2.32-7-1.21,7h-2Z"/><path class="cls-3" d="M299.49,267.88h6v2.05h-3.93v2h3.93v2h-3.93v2.9h3.93v2.06h-6Z"/><path class="cls-3" d="M307.47,267.88h2l4.72,7.25v-7.25h2.1v11h-2l-4.71-7.23v7.23h-2.1Z"/><path class="cls-3" d="M317.73,267.88h6.09V270h-2v8.95h-2.13V270h-1.95Z"/><path class="cls-3" d="M210.66,286.29h2.09v11h-2.09Z"/><path class="cls-3" d="M215.12,286.29h2l4.71,7.26v-7.26h2.1v11h-2l-4.71-7.24v7.24h-2.09Z"/><path class="cls-3" d="M236,286a5.49,5.49,0,0,1,4,1.69,5.65,5.65,0,0,1,1.68,4.13,5.54,5.54,0,0,1-1.66,4.08,5.76,5.76,0,0,1-8.15,0A5.78,5.78,0,0,1,236,286Zm0,2.05a3.44,3.44,0,0,0-2.57,1.06,3.7,3.7,0,0,0-1,2.71,3.5,3.5,0,0,0,1.31,2.89,3.57,3.57,0,0,0,2.34.83,3.42,3.42,0,0,0,2.54-1.08,3.88,3.88,0,0,0,0-5.32A3.42,3.42,0,0,0,235.93,288.07Z"/><path class="cls-3" d="M243.65,286.29h2l4.71,7.26v-7.26h2.1v11h-2l-4.71-7.24v7.24h-2.09Z"/><path class="cls-3" d="M255,286.29h6v2.06h-3.93v2H261v2h-3.93v2.89H261v2.07h-6Z"/><path class="cls-3" d="M273,287.79l-1.55,1.37a2.18,2.18,0,0,0-1.67-1.13,1,1,0,0,0-.67.22.61.61,0,0,0-.26.49.89.89,0,0,0,.18.53,14.63,14.63,0,0,0,1.54,1.41c.8.67,1.29,1.1,1.46,1.27a4.55,4.55,0,0,1,.9,1.23,3.07,3.07,0,0,1,.27,1.29,2.94,2.94,0,0,1-.94,2.24,3.4,3.4,0,0,1-2.44.88,3.65,3.65,0,0,1-2.05-.57,4.48,4.48,0,0,1-1.5-1.82l1.76-1.06c.53,1,1.14,1.46,1.83,1.46a1.34,1.34,0,0,0,.91-.31.94.94,0,0,0,.37-.73,1.23,1.23,0,0,0-.28-.75,7.94,7.94,0,0,0-1.22-1.15,12.53,12.53,0,0,1-2.33-2.26,2.92,2.92,0,0,1-.52-1.6,2.59,2.59,0,0,1,.87-2,3,3,0,0,1,2.16-.82,3.34,3.34,0,0,1,1.57.38A5.65,5.65,0,0,1,273,287.79Z"/><path class="cls-3" d="M274.46,286.29h2.25l2.06,4,2-4H283l-3.23,6.25v4.78H277.7v-4.78Z"/><path class="cls-3" d="M290.54,287.79,289,289.16a2.21,2.21,0,0,0-1.67-1.13,1,1,0,0,0-.68.22.64.64,0,0,0-.26.49.84.84,0,0,0,.19.53,13.59,13.59,0,0,0,1.54,1.41c.8.67,1.28,1.1,1.45,1.27a4.4,4.4,0,0,1,.91,1.23,3.07,3.07,0,0,1,.26,1.29,3,3,0,0,1-.93,2.24,3.43,3.43,0,0,1-2.45.88,3.67,3.67,0,0,1-2.05-.57,4.65,4.65,0,0,1-1.5-1.82l1.77-1.06c.53,1,1.14,1.46,1.83,1.46a1.36,1.36,0,0,0,.91-.31,1,1,0,0,0,.36-.73,1.28,1.28,0,0,0-.27-.75,8.71,8.71,0,0,0-1.23-1.15,12.38,12.38,0,0,1-2.32-2.26,2.93,2.93,0,0,1-.53-1.6,2.57,2.57,0,0,1,.88-2,3,3,0,0,1,2.15-.82,3.31,3.31,0,0,1,1.57.38A5.67,5.67,0,0,1,290.54,287.79Z"/><path class="cls-3" d="M291.65,286.29h6.09v2.07h-2v9H293.6v-9h-2Z"/><path class="cls-3" d="M299.19,286.29h6v2.06h-3.93v2h3.93v2h-3.93v2.89h3.93v2.07h-6Z"/><path class="cls-3" d="M308.23,286.29h2l2.56,7.69,2.57-7.69h2.05l1.85,11h-2l-1.19-7-2.34,7h-1.85l-2.32-7-1.21,7h-2Z"/></svg>