<svg id="Layer_1" data-name="Layer 1" xmlns="http://www.w3.org/2000/svg" viewBox="0 0 263.67 138"><defs><style>.cls-1{fill:#333433;}.cls-2{fill:#e27e26;}.cls-3{fill:#e06026;}.cls-4{font-size:11px;fill:#231f20;font-family:OpenSans-Regular, Open Sans;}</style></defs><title>Logo</title><path class="cls-1" d="M11.63,52a15,15,0,0,0,1.5,2A164.59,164.59,0,0,0,58,91.72c6.66,3.83,11.13,2.74,15.08-3.94,3.37-5.72,6.22-11.74,9.3-17.63a138.35,138.35,0,0,0,7.76-16.26,201,201,0,0,0,11.68-33.18c.59-2.3,1-4.55-.72-6.58-.28-.59-.52-.54-.73,0-.78,1.64-1.59,3.27-2.34,4.92-4.24,9.37-8.46,18.76-14.77,27-1.86,3.33-4.56,6-7,8.81-13.12,13.38-26.82,15.59-43.44,7A90.61,90.61,0,0,1,14.89,49.2c-.92-.81-1.93-2.45-3.3-1.33S10.84,50.63,11.63,52Z"/><path class="cls-2" d="M25.63,49.91a15,15,0,0,0,1.5,2A164.77,164.77,0,0,0,72,89.64c6.66,3.82,11.13,2.74,15.08-4C90.42,80,93.27,74,96.35,68.06a137.46,137.46,0,0,0,7.76-16.25,201.34,201.34,0,0,0,11.68-33.18c.59-2.31,1-4.56-.72-6.58-.28-.59-.52-.55-.73,0-.78,1.64-1.59,3.27-2.34,4.93-4.24,9.37-8.46,18.75-14.77,27-1.86,3.33-4.56,6-7,8.8C77.08,66.2,63.38,68.4,46.76,59.8A90.61,90.61,0,0,1,28.89,47.12c-.92-.81-1.93-2.45-3.3-1.34S24.84,48.55,25.63,49.91Z"/><circle class="cls-3" cx="63.32" cy="43.31" r="10.5"/><path class="cls-2" d="M168.59,49.43H163.9V34.1H145.57V49.43h-4.69v-35h4.69V29.6H163.9V14.46h4.69Z"/><path class="cls-2" d="M197.9,49.43l-8.22-12.91a10.75,10.75,0,0,1-1.16,0h-5.18V49.43h-4.69v-35H188a15.43,15.43,0,0,1,6.38,1.26,10,10,0,0,1,4.4,3.7,10.47,10.47,0,0,1,1.6,5.88,12.6,12.6,0,0,1-1.43,5.95,9.32,9.32,0,0,1-4.38,4.11l8.81,14.07Zm-4-19.39a6.9,6.9,0,0,0,1.67-4.55,7.11,7.11,0,0,0-.7-3A6,6,0,0,0,192.6,20a6.89,6.89,0,0,0-3.84-1h-5.42V32h5.08Q192.2,32,193.86,30Z"/><path class="cls-2" d="M245.35,13.35V49.43h-4.64V26.8L227.84,45h-.1l-12.62-17.6v22h-4.55V13.35h.05l17.22,24.38L245.3,13.35Z"/><path class="cls-1" d="M159.12,82.47H146.6l-3.76,9.41h-2l12-29.65H153l12,29.65h-2.2Zm-.72-1.84-5.48-14-5.6,14Z"/><path class="cls-1" d="M187.53,91.88l-7.44-12.09A11.37,11.37,0,0,1,178,80h-4.41V91.88h-2V63.47h6.49a10.81,10.81,0,0,1,4.3.88A7.88,7.88,0,0,1,185.75,67a7.49,7.49,0,0,1,1.3,4.48,9.31,9.31,0,0,1-1.2,4.7,7,7,0,0,1-3.72,3.06l7.68,12.61Zm-4.14-15.73a6.78,6.78,0,0,0,1.66-4.56,6.27,6.27,0,0,0-.82-3.12,6,6,0,0,0-2.34-2.28,7.19,7.19,0,0,0-3.52-.84h-4.81V78.07h4.29Q181.72,78.07,183.39,76.15Z"/><path class="cls-1" d="M213.54,91.58a14,14,0,0,1-4.21.61,14.61,14.61,0,0,1-7.56-1.92,13.55,13.55,0,0,1-5.1-5.2,14.59,14.59,0,0,1-1.82-7.2,15.08,15.08,0,0,1,1.88-7.48,14,14,0,0,1,12.45-7.24,14.7,14.7,0,0,1,7.76,2.16l-.84,1.8A12.92,12.92,0,0,0,209.21,65a11.74,11.74,0,0,0-6.16,1.7,12.45,12.45,0,0,0-4.5,4.64,12.8,12.8,0,0,0-1.66,6.42,13.21,13.21,0,0,0,1.52,6.3,11.57,11.57,0,0,0,4.32,4.54,12.37,12.37,0,0,0,6.48,1.68,12.78,12.78,0,0,0,6.93-2l.92,1.72A16.22,16.22,0,0,1,213.54,91.58Z"/><path class="cls-1" d="M245.34,91.88h-2V78.51H226.26V91.88h-2V63.47h2v13.2h17.12V63.47h2Z"/><text class="cls-4" transform="translate(15.36 118.07)">Total Human Resources Management System</text></svg>