<svg id="Layer_1" data-name="Layer 1" xmlns="http://www.w3.org/2000/svg" xmlns:xlink="http://www.w3.org/1999/xlink" viewBox="0 0 156.86 144"><defs><style>.cls-1{fill:url(#linear-gradient);}.cls-2{fill:#fff;opacity:0.1;}.cls-3{fill:url(#linear-gradient-2);}.cls-4{fill:url(#linear-gradient-3);}.cls-5{opacity:0.26;}.cls-6{fill:#eb5c5c;}.cls-7{fill:url(#linear-gradient-4);}.cls-8{fill:url(#linear-gradient-5);}.cls-9{fill:#723e5e;}.cls-10{fill:url(#linear-gradient-6);}.cls-11{fill:url(#linear-gradient-7);}.cls-12{fill:url(#linear-gradient-8);}.cls-13{fill:url(#linear-gradient-9);}.cls-14{fill:url(#linear-gradient-10);}</style><linearGradient id="linear-gradient" x1="20.44" y1="30.72" x2="56.3" y2="80.08" gradientUnits="userSpaceOnUse"><stop offset="0" stop-color="#12707c"/><stop offset="0.03" stop-color="#15787f"/><stop offset="0.11" stop-color="#1d8e88"/><stop offset="0.21" stop-color="#239f8e"/><stop offset="0.34" stop-color="#28aa93"/><stop offset="0.51" stop-color="#2ab195"/><stop offset="1" stop-color="#2bb396"/></linearGradient><linearGradient id="linear-gradient-2" x1="14.69" y1="28.08" x2="85.27" y2="28.08" gradientUnits="userSpaceOnUse"><stop offset="0" stop-color="#1b9696"/><stop offset="0.02" stop-color="#1e9898"/><stop offset="0.17" stop-color="#31a7a7"/><stop offset="0.34" stop-color="#3eb1b1"/><stop offset="0.57" stop-color="#46b7b7"/><stop offset="1" stop-color="#48b9b9"/></linearGradient><linearGradient id="linear-gradient-3" x1="61.37" y1="38.03" x2="139.35" y2="38.03" gradientUnits="userSpaceOnUse"><stop offset="0" stop-color="#723e5e"/><stop offset="1" stop-color="#706490"/></linearGradient><linearGradient id="linear-gradient-4" x1="94.85" y1="14.29" x2="131.79" y2="47.81" gradientUnits="userSpaceOnUse"><stop offset="0" stop-color="#ec8c4f"/><stop offset="0.1" stop-color="#ee9553"/><stop offset="0.34" stop-color="#f3a55b"/><stop offset="0.62" stop-color="#f5ae60"/><stop offset="1" stop-color="#f6b161"/></linearGradient><linearGradient id="linear-gradient-5" x1="68.96" y1="47.33" x2="68.96" y2="61.68" gradientUnits="userSpaceOnUse"><stop offset="0" stop-color="#ec8c4f"/><stop offset="0.21" stop-color="#f09957"/><stop offset="0.48" stop-color="#f3a15d"/><stop offset="1" stop-color="#f4a35e"/></linearGradient><linearGradient id="linear-gradient-6" x1="84.02" y1="135.23" x2="91.03" y2="135.23" xlink:href="#linear-gradient-5"/><linearGradient id="linear-gradient-7" x1="102.38" y1="135.22" x2="113.24" y2="135.22" xlink:href="#linear-gradient-5"/><linearGradient id="linear-gradient-8" x1="125.57" y1="135.23" x2="132.4" y2="135.23" xlink:href="#linear-gradient-5"/><linearGradient id="linear-gradient-9" x1="143.03" y1="135.23" x2="151.87" y2="135.23" xlink:href="#linear-gradient-5"/><linearGradient id="linear-gradient-10" x1="4.83" y1="140.1" x2="78.53" y2="140.1" xlink:href="#linear-gradient-5"/></defs><title>new logo demo</title><path class="cls-1" d="M47.59,32.88s-14.9-2.14-14.79,12c0,0,.05,11.89,14.79,10.9,0,0,21.37-10.9,19,16.82a31.8,31.8,0,0,0-16.21,1.26C41.8,77,10,75.09,14.69,40.38,16.89,32.51,25.42,19.42,47.59,32.88Z"/><path class="cls-2" d="M18.67,32.64a21.2,21.2,0,0,0-4,7.74C10,75.09,41.8,77,50.37,73.86a29.45,29.45,0,0,1,3.28-1C38.35,72.28,16.38,63.63,18.67,32.64Z"/><path class="cls-3" d="M85.27,25.42s-11.33,2.2-23.9-6.72c.15.15-40.68-14.86-46.68,21.68.22,0,12.08-19,32.9-7.5C47.69,32.88,70.08,49.87,85.27,25.42Z"/><path class="cls-2" d="M53.13,25.6C30.77,13,18,30.23,17.74,30.32a37.29,37.29,0,0,0-3,10.06c.22,0,12.15-19.07,32.9-7.5.1,0,22.49,17,37.68-7.46l-.46.07C70.69,37.38,53.22,25.6,53.13,25.6Z"/><path class="cls-4" d="M84.69,26.31S69.94,26.2,61.37,18.7A8.22,8.22,0,0,0,68,15.79s51.05-33.69,69.91,17.52c0,.21,4.93,12.64-3.43,31.07.21,0-13.83,13.69-32.69,2.12-.86.22,15.12-2.12,18.12-15.19C120.34,51.52,110.34,8.38,84.69,26.31Z"/><path class="cls-5" d="M47.59,55.78s3-1.58,6,2.07C56.82,61.71,58.81,70,62.5,72.13c6,.19,7.78,2,7.78,2l-5.76-5.38-2.09-2.64-1.29-2.36-.86-2.11L58.3,59l-1-2.57-2-.64-1.87-.68-1.13-1H51.14Z"/><path class="cls-6" d="M47.59,55.78S54.18,52,58,61.06c0,0,9.91,21.21,35.29,24.87,0,0,27.48,4.74,41.21-21.55,0,0-29.36,14.5-44.14-7.86L65.12,51.31l-12.32,2Z"/><path class="cls-2" d="M97.86,78.79c-25.38-3.66-35.29-24.87-35.3-24.87A21,21,0,0,0,60.87,52L52.8,53.31l-5.21,2.47S54.23,52,58,61.06c0,0,9.91,21.22,35.29,24.87,0,0,27.48,4.75,41.21-21.55l-.07,0C120,82.59,97.86,78.79,97.86,78.79Z"/><path class="cls-5" d="M118.14,55.91c1.43.86,7.45,3,19.2.82l.63-2.26-17.66-4.29A25.48,25.48,0,0,1,118.14,55.91Z"/><path class="cls-5" d="M68,15.79s12.52-8.16,26.42,6.32a15.78,15.78,0,0,1,8.12,1c-.24-.75-6.63-7.07-6.63-7.07l-7.39-2.75-6.4-2.75-10.07,2.6Z"/><path class="cls-7" d="M68,15.79S96.55-.33,111.34,43.31c1.57,4.64,9.21,17.75,36,10.14-.11-.21-7.61-3.91-12.86-19.78C134.48,33.74,119.21-19.17,68,15.79Z"/><path class="cls-2" d="M124.61,39.52c2.77,8.38,6.16,13.36,8.77,16.24a55.94,55.94,0,0,0,13.94-2.31c-.1-.21-7.6-3.91-12.85-19.78,0,.07-15.22-52.66-66.23-18.05C111.37-6.23,124.61,39.59,124.61,39.52Z"/><path class="cls-8" d="M47.59,55.78s10.07-5.76,24,3.57c.1-.11,9.21,6.89,18.75-2.83C90.34,56.67,75.87,36.28,47.59,55.78Z"/><path class="cls-5" d="M61.37,18.7s6.8,6.92,23.32,7.61c0,0,1.78-1.21,2.49-1.58-6.47-1.29-20.13-1.08-25.55-6C61.38,18.72,61.37,18.7,61.37,18.7Z"/><path class="cls-9" d="M7.57,122.61H5.51v-14.2H7.57Z"/><path class="cls-9" d="M22.14,121.81c0,.54-.25.8-.76.8H19.43a.91.91,0,0,1-.54-.15,1.15,1.15,0,0,1-.35-.48l-4.43-9.68-.4-.83a6.69,6.69,0,0,1-.44-1.15H13a16.08,16.08,0,0,1,.1,2v10.31H11v-13.4a.71.71,0,0,1,.79-.8H13.7a.91.91,0,0,1,.54.15,1.53,1.53,0,0,1,.37.49l4.3,9.43.29.63c.33.66.56,1.16.7,1.49h.31c-.07-.83-.11-1.56-.11-2.21v-10h2Z"/><path class="cls-9" d="M27.92,110.44a1.4,1.4,0,0,0-.3,1v3.06h5.81v1.67l-5.81,0v6.4H25.56V111a2.51,2.51,0,0,1,.77-2,3,3,0,0,1,2.09-.7c1.35,0,2.46,0,3.35,0s1.73.07,2.54.15l-.1,1.59H28.94A1.41,1.41,0,0,0,27.92,110.44Z"/><path class="cls-9" d="M38.78,122.61H36.72v-14.2h2.06Z"/><path class="cls-9" d="M53.36,121.81c0,.54-.26.8-.77.8h-2a.91.91,0,0,1-.54-.15,1.24,1.24,0,0,1-.35-.48l-4.42-9.68c-.06-.11-.19-.39-.4-.83a6.07,6.07,0,0,1-.45-1.15h-.29a15.88,15.88,0,0,1,.11,2v10.31H42.24v-13.4a.7.7,0,0,1,.78-.8h1.89a.91.91,0,0,1,.54.15,1.4,1.4,0,0,1,.37.49l4.3,9.43.29.63c.33.66.56,1.16.7,1.49h.31c-.07-.83-.1-1.56-.1-2.21v-10h2Z"/><path class="cls-9" d="M58.87,122.61h-2v-14.2h2Z"/><path class="cls-9" d="M72.16,110.24H67.65v12.37H65.57V110.24H61.1v-1.83H72.16Z"/><path class="cls-9" d="M79.57,117.69v4.92H77.51v-5l-4.7-9.24H75l2.86,5.82a7.39,7.39,0,0,1,.38,1q.18.56.24.69h.14c0-.09.1-.32.23-.68a7,7,0,0,1,.39-.94l2.86-5.85h2.14Z"/><path class="cls-9" d="M92.51,110.44a1.4,1.4,0,0,0-.3,1v3.06H98v1.67l-5.81,0v6.4H90.15V111a2.51,2.51,0,0,1,.77-2,3,3,0,0,1,2.09-.7c1.35,0,2.46,0,3.35,0s1.73.07,2.54.15l-.1,1.59H93.53A1.41,1.41,0,0,0,92.51,110.44Z"/><path class="cls-9" d="M103.33,119.57a1.41,1.41,0,0,0,.29,1,1.34,1.34,0,0,0,1,.3h5l.1,1.58c-1.33.12-3.15.19-5.47.19-2,0-3-.94-3-2.8V108.41h2.06Z"/><path class="cls-9" d="M119.45,118.33h-5.66l-1.32,4.28h-2.1L114.82,109a.74.74,0,0,1,.28-.41.83.83,0,0,1,.48-.14h2.1a.75.75,0,0,1,.47.15.72.72,0,0,1,.27.4l4.47,13.65h-2.12Zm-.56-1.79-1.64-5.39L116.9,110h-.56l-.33,1.16-1.67,5.39Z"/><path class="cls-9" d="M139,108.62a1,1,0,0,1,.24.63l.57,13.36h-2.06l-.49-12.49h-.41l-2.89,10.11a.84.84,0,0,1-.88.7h-1.79a.87.87,0,0,1-.91-.7l-2.9-10.11h-.39l-.48,12.49h-2l.53-13.36a.9.9,0,0,1,.24-.63.82.82,0,0,1,.61-.21h2.28a.89.89,0,0,1,.56.17,1.13,1.13,0,0,1,.31.53l2.4,8.32c.14.49.3,1.13.48,1.91h.37c.16-.73.33-1.37.49-1.93l2.39-8.3a.89.89,0,0,1,.91-.7h2.24A.84.84,0,0,1,139,108.62Z"/><path class="cls-9" d="M151.67,120.91l.11,1.58c-.83.07-1.7.11-2.63.14s-2.08,0-3.47,0a3,3,0,0,1-2.08-.69,2.43,2.43,0,0,1-.78-1.87v-9.18a2.43,2.43,0,0,1,.78-1.86,3,3,0,0,1,2.08-.69c1.39,0,2.54,0,3.47,0s1.8.06,2.63.13l-.11,1.61H146a1.09,1.09,0,0,0-.87.3,1.56,1.56,0,0,0-.26,1v2.84h6V116h-6v3.63a1.58,1.58,0,0,0,.26,1,1.09,1.09,0,0,0,.87.3Z"/><path class="cls-10" d="M90.53,130.92a.24.24,0,0,1-.21.14.46.46,0,0,1-.27-.15,3.3,3.3,0,0,0-.45-.33,4.3,4.3,0,0,0-.71-.34,3.13,3.13,0,0,0-1-.15,3.09,3.09,0,0,0-1.1.18,2.39,2.39,0,0,0-.79.48,2,2,0,0,0-.48.71,2.21,2.21,0,0,0-.17.84,1.67,1.67,0,0,0,.25,1,2.17,2.17,0,0,0,.64.64,4.14,4.14,0,0,0,.92.45l1,.36q.54.18,1,.39a3.65,3.65,0,0,1,.92.54,2.4,2.4,0,0,1,.65.79A2.54,2.54,0,0,1,91,137.6a3.76,3.76,0,0,1-.24,1.35,3.23,3.23,0,0,1-.72,1.1,3.33,3.33,0,0,1-1.14.73,4.11,4.11,0,0,1-1.54.27,4.31,4.31,0,0,1-1.94-.4A4.57,4.57,0,0,1,84,139.56l.23-.35a.28.28,0,0,1,.22-.12.35.35,0,0,1,.19.09l.27.24a4.84,4.84,0,0,0,.39.31,2.84,2.84,0,0,0,.52.3,3.1,3.1,0,0,0,.69.24,3.38,3.38,0,0,0,.88.1,3.3,3.3,0,0,0,1.21-.21,2.6,2.6,0,0,0,.89-.56,2.11,2.11,0,0,0,.56-.84,2.75,2.75,0,0,0,.2-1,1.77,1.77,0,0,0-.25-1,2.15,2.15,0,0,0-.65-.66,4,4,0,0,0-.91-.43l-1-.35c-.36-.11-.71-.24-1-.38a3.75,3.75,0,0,1-.92-.53,2.51,2.51,0,0,1-.65-.82,2.73,2.73,0,0,1-.24-1.22,3,3,0,0,1,.21-1.1,2.86,2.86,0,0,1,.64-.94,3.29,3.29,0,0,1,1-.65,3.84,3.84,0,0,1,1.4-.24,4.21,4.21,0,0,1,1.59.28,3.84,3.84,0,0,1,1.29.86Z"/><path class="cls-11" d="M113.24,135.22a7,7,0,0,1-.4,2.4,5.11,5.11,0,0,1-1.11,1.83,5,5,0,0,1-1.71,1.18,5.89,5.89,0,0,1-2.22.41,5.73,5.73,0,0,1-2.19-.41,4.94,4.94,0,0,1-1.72-1.18,5.11,5.11,0,0,1-1.11-1.83,6.79,6.79,0,0,1-.4-2.4,6.72,6.72,0,0,1,.4-2.38,5.24,5.24,0,0,1,1.11-1.84,5.07,5.07,0,0,1,1.72-1.18,6.13,6.13,0,0,1,4.41,0,5,5,0,0,1,1.71,1.18,5.24,5.24,0,0,1,1.11,1.84A7,7,0,0,1,113.24,135.22Zm-.86,0a6.54,6.54,0,0,0-.33-2.14,4.64,4.64,0,0,0-.93-1.61,4.08,4.08,0,0,0-1.44-1,4.92,4.92,0,0,0-1.88-.35,4.84,4.84,0,0,0-1.85.35,4.21,4.21,0,0,0-1.45,1,4.5,4.5,0,0,0-.94,1.61,6.94,6.94,0,0,0,0,4.29,4.38,4.38,0,0,0,.94,1.6,4,4,0,0,0,1.45,1,4.84,4.84,0,0,0,1.85.35,4.92,4.92,0,0,0,1.88-.35,3.84,3.84,0,0,0,1.44-1,4.5,4.5,0,0,0,.93-1.6A6.52,6.52,0,0,0,112.38,135.22Z"/><path class="cls-12" d="M132.4,129.53v.69h-6V135h5.19v.68H126.4v5.23h-.83V129.53Z"/><path class="cls-13" d="M151.87,129.53v.7h-4v10.69h-.82V130.23h-4v-.7Z"/><path class="cls-14" d="M78.28,140.35H5.08a.25.25,0,0,1,0-.5h73.2a.25.25,0,0,1,0,.5Z"/></svg>