<svg id="Layer_1" data-name="Layer 1" xmlns="http://www.w3.org/2000/svg" viewBox="0 0 559.47 80.51"><defs><style>.cls-1{font-size:77.01px;font-family:BellMT, Bell MT;}</style></defs><title>Logo &amp;amp; Banner</title><text class="cls-1" transform="translate(75.09 67.22)">KASH</text><text class="cls-1" transform="translate(320.7 67.22)">ARMY</text><circle cx="296.84" cy="45.99" r="9.23"/><path d="M59.3,15.25H14.7a4.59,4.59,0,0,0-4.58,4.58v44.6A4.59,4.59,0,0,0,14.7,69H59.3a4.59,4.59,0,0,0,4.58-4.58V19.83A4.59,4.59,0,0,0,59.3,15.25ZM36.43,24H50.72c.16,0,.38-.06.39.24s-.2.3-.41.31a6,6,0,0,0-4.2,2.15q-2.72,3-5.45,6.07c-.11.12-.2.26-.29.38l-.2-.08c0-1.29,0-2.57,0-3.86a4.52,4.52,0,0,0-4.15-4.78c-.17,0-.42,0-.38-.27S36.28,24,36.43,24ZM22.64,57.21c-.15-.17-.08-.36-.08-.53q0-13.66,0-27.34a4.57,4.57,0,0,0-3-4.64,5,5,0,0,0-1.13-.24c-.15,0-.37,0-.37-.22s.21-.21.36-.21c2.52,0,5-.05,7.56,0a5.86,5.86,0,0,1,5.53,5.65c.07,3.18,0,6.37,0,9.55v5.42a1.09,1.09,0,0,1-.19.67L22.76,57.1A1.31,1.31,0,0,1,22.64,57.21Zm33.06,3H53.27c-2.51,0-5,0-7.51,0a6,6,0,0,1-5.59-3.38c-.55-1.06-.92-1.53-1.45-2.6A.73.73,0,0,0,38,53.8H29.2a1.24,1.24,0,0,1,.94-1h7.24c.67,0,.68,0,.37-.58l-4.41-8.47a.55.55,0,0,1,0-.69c2-2.73,4-5.48,6-8.22l.17-.24,1.87,3.52c3.36,6.3,6.74,12.59,10,18.91a5.07,5.07,0,0,0,3.73,2.7c.2,0,.4.06.6.09s.27,0,.28.19S55.85,60.24,55.7,60.24Z"/></svg>