<svg id="Layer_1" data-name="Layer 1" xmlns="http://www.w3.org/2000/svg" viewBox="0 0 308 99"><defs><style>.cls-1,.cls-3{fill:#10375a;}.cls-2{fill:#2172ba;}.cls-3{font-size:41.66px;font-family:Arial-Black, Arial;font-weight:800;}.cls-4{fill:#2173b9;}</style></defs><title>logo</title><path class="cls-1" d="M287.11,40.36H270.86l-8.12-14.07,8.12-14.07h16.25l8.12,14.07Zm-14.51-3h12.77l6.39-11.07-6.39-11.07H272.6l-6.39,11.07Z"/><polygon class="cls-2" points="274.32 34.36 269.67 26.29 274.32 18.22 283.65 18.22 288.31 26.29 283.65 34.36 274.32 34.36"/><circle class="cls-1" cx="241.03" cy="45.36" r="6.5"/><path class="cls-2" d="M270.7,80.56A12.25,12.25,0,1,1,283,68.31,12.26,12.26,0,0,1,270.7,80.56Zm0-19.5A7.25,7.25,0,1,0,278,68.31,7.26,7.26,0,0,0,270.7,61.06Z"/><path class="cls-2" d="M251.85,42.73a2.5,2.5,0,0,1-1.22-4.68l9.94-5.57A2.5,2.5,0,0,1,263,36.85l-9.95,5.56A2.47,2.47,0,0,1,251.85,42.73Z"/><path class="cls-1" d="M256.64,62a2.47,2.47,0,0,1-2.28-.47L247,55.45a2.5,2.5,0,1,1,3.18-3.86l7.41,6.11a2.51,2.51,0,0,1,.34,3.52A2.45,2.45,0,0,1,256.64,62Z"/><text class="cls-3" transform="translate(11.33 91.77)">LAB<tspan class="cls-4" x="92.59" y="0">-</tspan><tspan x="106.46" y="0">BOND</tspan></text><circle class="cls-2" cx="16.83" cy="51.86" r="5.5"/><circle class="cls-1" cx="36.5" cy="51.86" r="5.5"/></svg>