<svg id="Layer_1" data-name="Layer 1" xmlns="http://www.w3.org/2000/svg" viewBox="0 0 496.06 377.66"><defs><style>.cls-1,.cls-7{fill:#252219;}.cls-2{fill:#e8af45;}.cls-3{fill:#e72629;}.cls-4{fill:#dee165;}.cls-5{fill:#7fbe75;}.cls-6{fill:#fff;}.cls-7{font-size:74.51px;font-family:ArialRoundedMTBold, Arial Rounded MT Bold;}.cls-8{letter-spacing:-0.04em;}</style></defs><title>logo</title><path class="cls-1" d="M160.51,49.22a7.78,7.78,0,0,0-5-4.09c-2-.67-2.16-2.12-1.54-3.7s2.35-1.33,3.55-1c4.38,1.29,7.27,4.42,9.27,8.36a47.48,47.48,0,0,1,2.57,6.5c1.83,5.35,2.78,10.35,11.11,9.67,8-.64,11.62,6.56,14.83,13,1.24,2.51,1.49,6.82,4.56,6.79,2.68,0,3.59-4.12,5-6.6,3-5.43,5-12,12.09-13.2,9.5-1.54,15.81-3.34,23.61,9.13,0-8.13,2.57-13.87,10.07-16.46,1.49-.51.79-2.41.68-3.71a41.81,41.81,0,0,0-3.63-14.65C245.37,34.59,244.4,30,249.39,27c4.64-2.85,8.46-.35,11.15,4.31,2.93-5.87-.15-16.54,10.71-14.52,9.9,1.85,4,10.34,4.72,16,1.13.92,1.71-.32,2.36-.69,3.56-2,6.94-1.82,9.37,1.45s2.45,7.15-.47,10.16A51,51,0,0,0,277.16,58c-.81,1.76-2,3.46.06,5.21,5.74,4.83,5,10.89,3.24,17.17-.4,1.39-1.58,2.81-.25,4.25a1.89,1.89,0,0,0,1.65.2c2.46-.82,1.11-2.94,1.3-4.45.27-2.12-.14-4.32.13-6.44A6.34,6.34,0,0,1,288.85,68c2.87-.52,5.89-.61,6.81,2.67.77,2.76,9.32,6.28-.3,8.95-.31.08-2.41,4.5,1.63,5.24.38.07.79,0,1.17.09,21.54,4.55,31.52,17.88,29.82,40.14-.19,2.49,1,2.28,2.58,2.66,7.07,1.72,7.89,2.87,6.59,10-1.81,9.95-3.85,19.85-5.78,29.77-1.89,9.72-3.75,19.44-5.78,29.94h71.53a25,25,0,0,1,4.67.2,2.6,2.6,0,0,1,2.18,3,2.64,2.64,0,0,1-2.39,2.82,31.11,31.11,0,0,1-4.1.1c-22.68,0-45.36.16-68-.12-4,0-5.6,1.17-6.09,4.75-1.83,13.72-2.69,14.71-18.25,14.67-42.81-.12-85.62,0-128.44,0-11.8,0-13.37-1.05-15.39-12.71-.87-5.06-2.66-6.77-8.11-6.69-24.82.37-49.65.17-74.48.17-.78,0-1.57.05-2.34,0-2.35-.2-5.67.9-5.49-3.22.15-3.51,3.07-2.87,5.3-2.88,12.91,0,25.81,0,38.71,0h43.42c-2.8-12.56-5.47-24.67-8.2-36.77-1.72-7.57-3.6-15.11-5.27-22.69-1.6-7.26.59-10.18,8.3-10.3,3.52,0,4.84-.68,4.45-4.5-.54-5.34,1.49-10.32,3.24-15.29s2.22-10.07.31-15.37c-3.38-9.38-4.23-18.43,5.78-24.8,1.24-.78,1.4-1.66.68-2.92-1-1.79-2.06-.85-3.38-.38A41.8,41.8,0,0,1,144,66.25c-2.33-.35-4.24-1.28-4.9-3.53s.85-4.1,2.6-5.44C147.19,53.11,153.46,50.74,160.51,49.22Zm-1.82,6.34.13-.09c-4.91.22-8.87,2.5-12.89,5.45,1.79.92,3.08.24,4.38,0,3.73,1.14,7.26,0,10.76-1.05,1.45-.45,3.2-1.09,2.94-3-.4-3-2.85-.53-4.12-1.34C159.42,54.48,159,54.25,158.69,55.56Zm118.79,37c-.12,2.94,1.83,5.7,0,9.2,11.46-6.41,11.46-6.41,23,.09-3.17-7.13,1.79-8,8.09-8.91-3.94-1.36-6.19-2.34-8.54-2.91-9.7-2.33-9.72-2.28-10-12.6.41-1.5,3.57-1.64,2.08-4.07-.52-.84-1.29-1.58-2.41-1.17-2.11.76-2,2.6-2,4.37a54.11,54.11,0,0,0,.05,5.84c.55,4.51-.8,7.1-5.85,7C280,89.38,277.33,89.25,277.48,92.58Zm-44.77,8.85c-.67-3-3-4.48-5.65-5.25s-4.7,1-6.47,2.81a1.24,1.24,0,0,0,.09,2c1.8,1.5,3.13-.68,4.74-.66.47,1,1.87,2,.79,3a18.84,18.84,0,0,0-5,8.11c-.49,1.6-2.19,1.11-3.5,1-1.06-2.16,1.53-4.89-1.12-7.16-2.28,5.27-3.6,10.25-.39,15.36,1.76,5.61,6.46,6.49,11.2,6.16,5.09-.36,8.8-3.33,9.66-8.62C238,112,237.34,106.16,232.71,101.43Zm15.07-10.61,5.95,12.81c2.05-8.47,8.07-11.54,13.67-14.76s9.08-12.69,6.19-19.09c-5-6.57-16.64-9-23.26-4.74-4.09,2.61-4.28,9.08-.33,11.41,2.5.33,5,.6,7.5,1,2,.32,3.21,1.43,2.79,3.62a3.07,3.07,0,0,1-3.81,2.69c-2.5-.31-5-.67-7.49-1C244.72,83.13,244.38,85.39,247.78,90.82ZM231.44,71.49c-3.26-4.48-9.8-4-12.62,1.33-3,5.61-5.37,11.53-8.13,17.27-.95,2-.21,2.89,1.63,3.41l-2.1,4.58c-1.44-.11-2.9-1.7-4.09.94-3,6.75-5.65,13.64-4.77,21.12.27,2.35-1,6,2.94,7.07,3,.26,6.11.69,9.24-.08-5.25-10.51-5.07-18.31.49-27.25,7-11.2,16.65-11.32,23.8-.29,5.76,8.89,5.84,18.08.85,27.62a31.35,31.35,0,0,1,4.59.26c6.26,1.37,7.77-2.43,8.07-7.4.42-6.76-1.35-13.11-4.17-19.18-4.11-8.81-9.15-17.18-12.62-26.3C234,73.13,233.33,71.66,231.44,71.49Zm-47.3.12c-5.41-3.13-10.84-2.59-16,1.64-5.56,4.54-4.68,10.45-2.62,16a29.07,29.07,0,0,1-.24,21.49c-1.58,4.14-3,8.4-2.9,13,0,3.22,1.2,4.83,4.63,3.57,5.84.08,11.68.1,17.52.26,2.5.07,3.1-.53,2.73-3.28-1.12-8.21-1.33-16.76,3.71-23.68,4.78-6.57,5.48-12.13.55-18.73C189,78.47,188.2,73.87,184.14,71.61Zm79.22,30.22c-4.3.54-8.4,4.92-7.94,9.32.49,4.66,1.1,9.21-.19,13.83-.58,2.07.89,2.17,2.4,1.94,21.05,1.28,42.13-.11,63.18.76,2.34.09,2.44-1.75,2.89-3,3.06-8.67-2-21.44-10.13-25.93-4.59-2.53-7.67-1.27-9,3.7-1.9,6.92-3.67,7.49-8.69,2.82-6.73-6.25-6.75-6.22-13.6-.08-1.5,1.36-2.72,4-5.23,3s-3.37-3.5-3.45-6.25c-.11-4.49-2.59-4.77-5.89-3A48.53,48.53,0,0,0,263.36,101.83Zm-22.1,30.88c-28.53,0-57.07.06-85.61-.07-4.83,0-6.92.38-5.46,6.39q8.7,35.76,16.18,71.82c1.21,5.88,3.78,7,9,7q66.84-.23,133.69.05c5.94,0,8.07-2.05,9.09-7.66,4.32-23.58,9-47.08,13.62-70.6,1.33-6.84,1.35-6.89-5.53-6.89Q283.78,132.69,241.26,132.71ZM191,117.11c.39,2.68.66,5.38,1.22,8,.32,1.57,1.18,2.92,3.23,2.56s2.17-1.9,1.82-3.53c-2.09-9.63.4-18.43,4.65-27,.5-1,2.28-2.41.65-3.5-1.81-1.22-2.7.67-3.52,1.93C194.86,102.19,190.74,108.8,191,117.11Zm90-77.55c-4.16,1.43-5.44,5.51-7.91,8.53-1.26,1.55-2.34,4.24-4.82,3.34s-1.7-3.49-1.74-5.62c-.06-2.87,1.78-5.53.79-8.91a17.35,17.35,0,0,0-1.86,6.45c-.3,2.59-.31,5.89-4,6.15-3.48.24-2.36-3.4-3.68-5-.16-.19-.67-.09-1-.11,1.46,11.86,1.48,11.75,9.76,13.27,2.42.44,3.74-.19,4.51-2.35C273.17,49.29,277.41,44.7,281,39.56Zm-70.47,39c-1.7,2.48-5,6-5.74,10.89C208,85.78,210.73,81.91,210.54,78.54Z"/><path class="cls-2" d="M241.26,132.71q42.53,0,85,0c6.88,0,6.86.05,5.53,6.89-4.59,23.52-9.3,47-13.62,70.6-1,5.61-3.15,7.69-9.09,7.66q-66.84-.36-133.69-.05c-5.27,0-7.84-1.09-9-7q-7.43-36.06-16.18-71.82c-1.46-6,.63-6.41,5.46-6.39C184.19,132.77,212.73,132.71,241.26,132.71Zm-.46,31.91h50.95c2.37,0,5.15.25,5.35-3,.23-3.68-2.81-3.55-5.36-3.72-.38,0-.78,0-1.17,0q-49.77,0-99.54,0c-2.67,0-6.19-.55-6.2,3.39s3.59,3.29,6.2,3.29Q215.92,164.66,240.8,164.62Zm-.34,28.14h33.43c2.51,0,4.95-.23,4.79-3.58-.15-3-2.55-3.1-4.73-3.11q-32.83-.06-65.69,0c-2.34,0-5,.05-5.06,3.39s2.58,3.33,5,3.33Z"/><path class="cls-3" d="M263.36,101.83a48.53,48.53,0,0,1,4.32-3c3.3-1.78,5.78-1.5,5.89,3,.08,2.75.88,5.23,3.45,6.25s3.73-1.59,5.23-3c6.85-6.14,6.87-6.17,13.6.08,5,4.67,6.79,4.1,8.69-2.82,1.36-5,4.44-6.23,9-3.7,8.14,4.49,13.19,17.26,10.13,25.93-.45,1.28-.55,3.12-2.89,3-21.05-.87-42.13.52-63.17-.76C256.58,117.88,256.82,109.14,263.36,101.83Z"/><path class="cls-4" d="M184.14,71.61c4.06,2.26,4.86,6.86,7.36,10.21,4.93,6.6,4.23,12.16-.55,18.73-5,6.92-4.83,15.47-3.71,23.68.37,2.75-.23,3.35-2.73,3.28-5.84-.16-11.68-.18-17.52-.26a24.94,24.94,0,0,1,1.86-11.91c3.55-8,3.73-15.87,1-24.27-3.14-9.62-1-14.37,6.4-18C178.81,71.83,181.48,72,184.14,71.61Z"/><path class="cls-5" d="M210.22,98.08l2.1-4.58A46.78,46.78,0,0,0,219,80c2.06-6.17,5.55-9.62,12.4-8.48,1.89.17,2.55,1.64,3.11,3.1,3.47,9.12,8.51,17.49,12.62,26.3,2.82,6.07,4.59,12.42,4.17,19.18-.3,5-1.81,8.77-8.07,7.4a31.35,31.35,0,0,0-4.59-.26c5-9.54,4.91-18.73-.85-27.62-7.15-11-16.83-10.91-23.8.29-5.56,8.94-5.74,16.74-.49,27.25-3.13.77-6.19.34-9.24.08C202.3,116.69,205.59,107.25,210.22,98.08Z"/><path class="cls-2" d="M249,82.76c2.5.34,5,.7,7.49,1a3.07,3.07,0,0,0,3.81-2.69c.42-2.19-.8-3.3-2.79-3.62-2.49-.41-5-.68-7.5-1,.32-6.35,2.54-8.55,8.75-9.24,5.24-.58,10,1.17,14.84,2.57,2.89,6.4-.5,15.82-6.19,19.09s-11.62,6.29-13.67,14.76l-5.95-12.81Q248.4,86.79,249,82.76Z"/><path class="cls-2" d="M217.7,112.37c1.31.16,3,.65,3.5-1a18.84,18.84,0,0,1,5-8.11c1.08-1-.32-2-.79-3,2.62-.86,5.16-1.22,7.29,1.11,4.63,4.73,5.32,10.58,4.34,16.68-.86,5.29-4.57,8.26-9.66,8.62-4.74.33-9.44-.55-11.2-6.16C216,117.72,215.88,114.86,217.7,112.37Z"/><path class="cls-6" d="M184.14,71.61c-2.66.35-5.33.22-7.91,1.49-7.35,3.6-9.54,8.35-6.4,18,2.75,8.4,2.57,16.32-1,24.27A24.94,24.94,0,0,0,167,127.25c-3.43,1.26-4.59-.35-4.63-3.57-.07-4.56,1.32-8.82,2.9-13a29.07,29.07,0,0,0,.24-21.49c-2.06-5.53-2.94-11.44,2.62-16C173.3,69,178.73,68.48,184.14,71.61Z"/><path class="cls-5" d="M290,77.45c.28,10.32.3,10.27,10,12.6,2.35.57,4.6,1.55,8.54,2.91-6.3,1-11.26,1.78-8.09,8.91-11.55-6.5-11.55-6.5-23-.09,1.83-3.5-.12-6.26,0-9.2a36.82,36.82,0,0,1,5.65-.88c4.63,0,6.29-2,5.82-6.66C288.7,82.61,287.73,79.68,290,77.45Z"/><path class="cls-5" d="M191,117.11c-.28-8.31,3.84-14.92,8-21.49.82-1.26,1.71-3.15,3.52-1.93,1.63,1.09-.15,2.51-.65,3.5-4.25,8.54-6.74,17.34-4.65,27,.35,1.63.34,3.15-1.82,3.53s-2.91-1-3.23-2.56C191.68,122.49,191.41,119.79,191,117.11Z"/><path class="cls-5" d="M281,39.56c-3.6,5.14-7.84,9.73-10,15.72-.77,2.16-2.09,2.79-4.51,2.35-8.28-1.52-8.3-1.41-9.76-13.28.35,0,.86-.07,1,.12,1.32,1.63.2,5.27,3.68,5,3.69-.26,3.7-3.56,4-6.15a17.35,17.35,0,0,1,1.86-6.45c1,3.38-.85,6-.79,8.91,0,2.13-.69,4.75,1.74,5.62s3.56-1.79,4.82-3.34C275.57,45.07,276.85,41,281,39.56Z"/><path class="cls-6" d="M273.59,69.78c-4.85-1.4-9.6-3.15-14.84-2.57-6.21.69-8.43,2.89-8.75,9.24-3.95-2.33-3.76-8.8.33-11.41C257,60.83,268.62,63.21,273.59,69.78Z"/><path class="cls-6" d="M231.44,71.49C224.59,70.35,221.1,73.8,219,80a46.78,46.78,0,0,1-6.72,13.53c-1.84-.52-2.58-1.42-1.63-3.41,2.76-5.74,5.15-11.66,8.13-17.27C221.64,67.51,228.18,67,231.44,71.49Z"/><path class="cls-4" d="M210.22,98.08c-4.63,9.17-7.92,18.61-5.92,29.13-3.9-1.09-2.67-4.72-2.94-7.07-.88-7.48,1.72-14.37,4.77-21.12C207.32,96.38,208.78,98,210.22,98.08Z"/><path class="cls-2" d="M263.36,101.83c-6.54,7.31-6.78,16-5.72,25.09-1.52.23-3,.13-2.41-1.94,1.29-4.62.68-9.17.19-13.83C255,106.75,259.06,102.37,263.36,101.83Z"/><path class="cls-6" d="M290,77.45c-2.31,2.23-1.34,5.16-1.09,7.59.47,4.69-1.19,6.66-5.82,6.66a36.82,36.82,0,0,0-5.65.88c-.15-3.33,2.48-3.2,4.46-3.16,5.05.1,6.4-2.49,5.85-7a54.11,54.11,0,0,1-.05-5.84c0-1.77-.14-3.61,2-4.37,1.12-.41,1.89.33,2.41,1.17C293.61,75.81,290.45,76,290,77.45Z"/><path class="cls-5" d="M159.89,55.48c1.27.81,3.72-1.64,4.12,1.34.26,2-1.49,2.6-2.94,3-3.5,1.08-7,2.19-10.75,1.05,1.89-3.31,6.19-2.82,8.5-5.45l-.13.09Z"/><path class="cls-6" d="M232.71,101.43c-2.13-2.33-4.67-2-7.29-1.11-1.61,0-2.94,2.16-4.74.66a1.24,1.24,0,0,1-.09-2c1.77-1.83,3.74-3.6,6.47-2.81S232,98.39,232.71,101.43Z"/><path class="cls-4" d="M217.7,112.37c-1.82,2.49-1.66,5.35-1.51,8.2-3.21-5.11-1.89-10.09.39-15.36C219.23,107.48,216.64,110.21,217.7,112.37Z"/><path class="cls-6" d="M210.54,78.54c.19,3.37-2.55,7.24-5.74,10.89C205.55,84.57,208.84,81,210.54,78.54Z"/><path class="cls-6" d="M158.82,55.47c-2.31,2.63-6.61,2.14-8.5,5.45-1.31.24-2.6.92-4.39,0C150,58,153.91,55.69,158.82,55.47Z"/><path class="cls-6" d="M249,82.76q-.6,4-1.21,8.06C244.38,85.39,244.72,83.13,249,82.76Z"/><path class="cls-6" d="M159.89,55.48l-1.2.08C159,54.25,159.42,54.48,159.89,55.48Z"/><path class="cls-1" d="M240.8,164.62q-24.88,0-49.77,0c-2.61,0-6.21.77-6.2-3.29s3.53-3.39,6.2-3.39q49.77,0,99.54,0c.39,0,.79,0,1.17,0,2.55.17,5.59,0,5.36,3.72-.2,3.26-3,3-5.35,3H240.8Z"/><path class="cls-1" d="M240.46,192.77H208.21c-2.43,0-5,.08-5-3.33s2.72-3.39,5.06-3.39q32.85-.06,65.69,0c2.18,0,4.58.13,4.73,3.11.16,3.35-2.28,3.59-4.79,3.58Z"/><text class="cls-7" transform="translate(90.14 286.82)">SHO<tspan class="cls-8" x="165.31" y="0">D</tspan><tspan x="217.63" y="0">AI</tspan></text><path class="cls-1" d="M125.77,329.46v7.82a19.08,19.08,0,0,1-1.93,8.78,14.08,14.08,0,0,1-5.5,5.88,16.05,16.05,0,0,1-8.23,2.08,17,17,0,0,1-8.32-2,13.68,13.68,0,0,1-5.56-5.52,16.9,16.9,0,0,1-2-8.28v-13.2a19,19,0,0,1,1.94-8.77,14,14,0,0,1,5.49-5.87,16.08,16.08,0,0,1,8.24-2.07A15.56,15.56,0,0,1,117,310a15.13,15.13,0,0,1,5.43,4.67,17.44,17.44,0,0,1,3,7H118.6a9.66,9.66,0,0,0-1.87-3.86,8.93,8.93,0,0,0-3.11-2.46,8.44,8.44,0,0,0-3.69-.85,9,9,0,0,0-4.87,1.32,8.8,8.8,0,0,0-3.23,3.71,12.75,12.75,0,0,0-1.14,5.56v13.2a10.47,10.47,0,0,0,1.17,5.06,8.26,8.26,0,0,0,3.31,3.37,9.93,9.93,0,0,0,4.94,1.2,9.3,9.3,0,0,0,4.86-1.24A8.27,8.27,0,0,0,118.2,343a12.88,12.88,0,0,0,1.14-5.63v-1.94h-9.08v-6Z"/><path class="cls-1" d="M179.43,308.81h6.28v44.75h-6.28Zm3.91,19.73h24.84v6H183.34Zm21.51-19.73h6.28v44.75h-6.28Z"/><path class="cls-1" d="M272.88,352a13.93,13.93,0,0,1-5.52-5.78,18.53,18.53,0,0,1-1.95-8.67V324.84a18.46,18.46,0,0,1,1.95-8.66,14,14,0,0,1,5.52-5.79,17.7,17.7,0,0,1,16.5,0,14,14,0,0,1,5.52,5.79,18.34,18.34,0,0,1,2,8.66v12.68a18.41,18.41,0,0,1-2,8.67,13.93,13.93,0,0,1-5.52,5.78,17.63,17.63,0,0,1-16.5,0ZM286,346.58a8.44,8.44,0,0,0,3.26-3.53,11.66,11.66,0,0,0,1.15-5.31V324.63a11.66,11.66,0,0,0-1.15-5.31,8.41,8.41,0,0,0-3.26-3.54,10.15,10.15,0,0,0-9.76,0,8.41,8.41,0,0,0-3.26,3.54,11.66,11.66,0,0,0-1.15,5.31v13.11a11.66,11.66,0,0,0,1.15,5.31,8.44,8.44,0,0,0,3.26,3.53,10.15,10.15,0,0,0,9.76,0Z"/><path class="cls-1" d="M350.51,308.78h6.28v44.78h-6.28Zm2.74,19.88h15.27a5.93,5.93,0,0,0,3.17-.86,5.76,5.76,0,0,0,2.14-2.45,9.23,9.23,0,0,0,0-7.29,5.74,5.74,0,0,0-2.13-2.45,5.87,5.87,0,0,0-3.18-.86H353.25v-6h15a14,14,0,0,1,6.82,1.6,11.18,11.18,0,0,1,4.55,4.54,15,15,0,0,1,0,13.57,11.35,11.35,0,0,1-4.57,4.54,13.93,13.93,0,0,1-6.79,1.6h-15Zm12.19,4.58,6.25-1.41,11.45,21.73h-7.45Z"/></svg>